<svg width="25" height="24" viewBox="0 0 25 24" fill="none" xmlns="http://www.w3.org/2000/svg">
<path d="M12.5005 2.50024C12.6329 2.50035 12.7603 2.55309 12.854 2.64673L21.8472 11.6399V11.6409C21.9382 11.7352 21.9889 11.8614 21.9878 11.9924C21.9866 12.1234 21.9339 12.2485 21.8413 12.3411C21.7486 12.4338 21.6228 12.4864 21.4917 12.4875C21.3608 12.4886 21.2343 12.4379 21.1401 12.3469L20.0005 11.2073V19.0002C20.0004 19.6632 19.7368 20.299 19.2681 20.7678C18.7993 21.2366 18.1634 21.5001 17.5005 21.5002H7.50049C6.83745 21.5002 6.20077 21.2367 5.73193 20.7678C5.26325 20.299 5.00054 19.6631 5.00049 19.0002V11.2073L3.854 12.3538H3.85303L3.84717 12.3596C3.80106 12.4073 3.74602 12.4457 3.68506 12.4719C3.6241 12.4981 3.55804 12.5114 3.4917 12.512C3.42546 12.5125 3.35966 12.4999 3.29834 12.4749C3.23696 12.4497 3.18118 12.4124 3.13428 12.3655C3.08741 12.3186 3.05001 12.2628 3.0249 12.2014C2.99984 12.1401 2.98723 12.0743 2.98779 12.0081C2.98837 11.9417 3.0026 11.8757 3.02881 11.8147C3.05499 11.7539 3.09253 11.6986 3.14014 11.6526L3.14697 11.6467L12.147 2.64673C12.2407 2.55309 12.368 2.50024 12.5005 2.50024Z" fill="#66DFFF" stroke="#007999"/>
</svg>
