<svg width="25" height="24" viewBox="0 0 25 24" fill="none" xmlns="http://www.w3.org/2000/svg">
<path d="M21.5 6.78809V17.2109L12.5 22.4219L3.5 17.2109V6.78809L12.5 1.57715L21.5 6.78809ZM12.5 8.5C11.5717 8.5 10.6818 8.86901 10.0254 9.52539C9.36901 10.1818 9 11.0717 9 12C9 12.9283 9.36901 13.8182 10.0254 14.4746C10.6818 15.131 11.5717 15.5 12.5 15.5C13.4283 15.5 14.3182 15.131 14.9746 14.4746C15.631 13.8182 16 12.9283 16 12C16 11.0717 15.631 10.1818 14.9746 9.52539C14.3182 8.86901 13.4283 8.5 12.5 8.5Z" fill="#66DFFF" stroke="#007999"/>
</svg>
