<svg width="25" height="24" viewBox="0 0 25 24" fill="none" xmlns="http://www.w3.org/2000/svg">
<path d="M12.5 1.00012L22 6.50012V17.5001L12.5 23.0001L3 17.5001V6.50012L12.5 1.00012ZM12.5 15.0001C13.2956 15.0001 14.0587 14.684 14.6213 14.1214C15.1839 13.5588 15.5 12.7958 15.5 12.0001C15.5 11.2045 15.1839 10.4414 14.6213 9.8788C14.0587 9.31619 13.2956 9.00012 12.5 9.00012C11.7043 9.00012 10.9413 9.31619 10.3787 9.8788C9.81607 10.4414 9.5 11.2045 9.5 12.0001C9.5 12.7958 9.81607 13.5588 10.3787 14.1214C10.9413 14.684 11.7043 15.0001 12.5 15.0001Z" fill="#ADB0B6"/>
</svg>
