<svg width="25" height="24" viewBox="0 0 25 24" fill="none" xmlns="http://www.w3.org/2000/svg">
<path d="M7.4502 2.5C7.84377 2.5 8.01144 2.49938 8.16895 2.51367V2.51465C8.78214 2.57203 9.36831 2.79003 9.86816 3.14453L10.0771 3.30469C10.1993 3.40661 10.3171 3.52416 10.5967 3.80371L11.1465 4.35352C11.9414 5.14745 12.4057 5.61772 12.9688 5.93066V5.93164C13.195 6.05772 13.4316 6.16374 13.6758 6.24902L13.9229 6.32812C14.5435 6.50463 15.2032 6.5 16.3281 6.5H16.7021C18.0311 6.5 18.9813 6.50051 19.708 6.5918C20.3331 6.67033 20.7391 6.81085 21.0459 7.03809L21.1719 7.14062C21.237 7.19948 21.2989 7.26178 21.3574 7.32715L21.3584 7.32812C21.6475 7.64915 21.8174 8.07784 21.9072 8.79199C21.9986 9.51863 22 10.4688 22 11.7979V14C22 15.8996 21.9985 17.2742 21.8574 18.3223C21.7183 19.3556 21.4518 19.997 20.9746 20.4746C20.4975 20.9521 19.8561 21.2194 18.8223 21.3584C17.7741 21.4994 16.3996 21.5 14.5 21.5H10.5C8.60044 21.5 7.22577 21.4985 6.17773 21.3574C5.14441 21.2183 4.50303 20.9518 4.02539 20.4746C3.5479 19.9975 3.28064 19.3561 3.1416 18.3223C3.00065 17.2741 3 15.8996 3 14V6.9502C3 6.04536 3.00256 5.66158 3.06152 5.35156V5.35059C3.19238 4.65931 3.52817 4.02256 4.02539 3.52539C4.52294 3.028 5.15929 2.69213 5.85059 2.56152H5.85156C6.16159 2.50256 6.54438 2.5 7.4502 2.5ZM13.5 8.75C13.1685 8.75 12.8506 8.88179 12.6162 9.11621C12.3818 9.35063 12.25 9.66848 12.25 10C12.25 10.3315 12.3818 10.6494 12.6162 10.8838C12.8506 11.1182 13.1685 11.25 13.5 11.25H18.5C18.8315 11.25 19.1494 11.1182 19.3838 10.8838C19.6182 10.6494 19.75 10.3315 19.75 10C19.75 9.66848 19.6182 9.35063 19.3838 9.11621C19.1494 8.88179 18.8315 8.75 18.5 8.75H13.5ZM16.7832 3.5C17.1595 3.5 17.3037 3.50031 17.417 3.51465V3.51562C17.9654 3.59109 18.4437 3.91567 18.7363 4.38477C18.127 4.33446 17.4065 4.33496 16.5879 4.33496H16.2539C15.2803 4.33496 15.0095 4.32547 14.7705 4.25488C14.6192 4.21009 14.4735 4.14734 14.3369 4.06836L14.3359 4.06738C14.1744 3.97459 14.0239 3.84531 13.6816 3.5H16.7832Z" fill="#66DFFF" stroke="#007999"/>
</svg>
