<svg width="25" height="24" viewBox="0 0 25 24" fill="none" xmlns="http://www.w3.org/2000/svg">
<path fill-rule="evenodd" clip-rule="evenodd" d="M2.57 5.258C2.5 5.626 2.5 6.068 2.5 6.95V14C2.5 17.771 2.5 19.657 3.672 20.828C4.844 21.999 6.729 22 10.5 22H14.5C18.271 22 20.157 22 21.328 20.828C22.499 19.656 22.5 17.771 22.5 14V11.798C22.5 9.166 22.5 7.849 21.73 6.994C21.6594 6.9151 21.5846 6.83999 21.506 6.769C20.651 6 19.334 6 16.702 6H16.328C15.175 6 14.598 6 14.06 5.847C13.7648 5.7626 13.4802 5.64449 13.212 5.495C12.724 5.224 12.316 4.815 11.5 4L10.95 3.45C10.676 3.176 10.54 3.04 10.396 2.92C9.77667 2.40664 9.01694 2.09194 8.216 2.017C8.03 2 7.836 2 7.45 2C6.567 2 6.126 2 5.758 2.07C4.96784 2.21922 4.241 2.60314 3.67231 3.17165C3.10361 3.74017 2.71947 4.46789 2.57 5.258ZM16.783 3C17.148 3 17.331 3 17.485 3.02C18.503 3.16 19.313 3.963 19.499 5C19.3467 4.96582 19.1928 4.93879 19.038 4.919C18.398 4.835 17.59 4.835 16.588 4.835H16.254C15.312 4.835 14.954 4.83 14.629 4.734C14.4398 4.678 14.2578 4.59979 14.087 4.501C13.791 4.331 13.535 4.073 12.869 3.383L12.5 3H16.783ZM13.5 9.25C13.3011 9.25 13.1103 9.32902 12.9697 9.46967C12.829 9.61032 12.75 9.80109 12.75 10C12.75 10.1989 12.829 10.3897 12.9697 10.5303C13.1103 10.671 13.3011 10.75 13.5 10.75H18.5C18.6989 10.75 18.8897 10.671 19.0303 10.5303C19.171 10.3897 19.25 10.1989 19.25 10C19.25 9.80109 19.171 9.61032 19.0303 9.46967C18.8897 9.32902 18.6989 9.25 18.5 9.25H13.5Z" fill="#ADB0B6"/>
</svg>
